<svg width="40" height="35" viewBox="0 0 40 35" fill="none" xmlns="http://www.w3.org/2000/svg">
<g id="elephant">
<path id="Subtract" fill-rule="evenodd" clip-rule="evenodd" d="M15.0057 0.0619131C-2.11319 0.717815 -1.16435 22.7386 1.48837 33.8859C1.52015 34.0194 1.63897 34.1085 1.77676 34.1085H6.00753C6.17239 34.1085 6.30586 33.9678 6.30823 33.8036C6.52572 18.7424 22.8586 19.1389 23.0817 33.804C23.0842 33.9683 23.2176 34.1085 23.3825 34.1085H26.7384C26.8963 34.1085 27.0275 33.9757 27.0375 33.8187C28.4034 12.4184 36.2055 19.9775 37.9516 28.9122C37.9791 29.0533 38.1026 29.1563 38.2468 29.1563H39.173C39.3282 29.1563 39.4567 29.0471 39.4689 28.8929C39.6279 26.8869 40.5926 14.0073 39.4476 10.5854C39.402 10.4489 39.3557 10.3071 39.308 10.1606C38.0561 6.32141 35.7559 -0.733121 15.0057 0.0619131ZM32.1979 13.4742C32.1979 14.044 31.7342 14.5059 31.1622 14.5059C30.5903 14.5059 30.1266 14.044 30.1266 13.4742C30.1266 12.9044 30.5903 12.4425 31.1622 12.4425C31.7342 12.4425 32.1979 12.9044 32.1979 13.4742ZM22.3863 8.50523C22.4914 8.37871 22.4737 8.19126 22.3467 8.08655C22.2197 7.98184 22.0315 7.99952 21.9264 8.12605C21.0801 9.14471 20.0869 10.7981 19.9124 12.4369C19.8244 13.2639 19.9436 14.102 20.4119 14.8474C20.8804 15.5933 21.6777 16.2137 22.8845 16.6431C23.0397 16.6983 23.2106 16.6177 23.266 16.463C23.3215 16.3084 23.2405 16.1382 23.0853 16.083C21.9722 15.687 21.2988 15.1381 20.918 14.532C20.537 13.9255 20.4285 13.2288 20.5061 12.4997C20.663 11.0261 21.5755 9.48122 22.3863 8.50523Z" fill="white"/>
</g>
</svg>
